<?xml version="1.0" encoding="UTF-8"?>
<svg width="40" height="40" viewBox="0 0 40 40" xmlns="http://www.w3.org/2000/svg">
  <!-- Helmet -->
  <path 
    d="M10,12 Q20,8 30,12 L28,18 L12,18 Z" 
    fill="#00ff00" 
  />
  
  <!-- Face -->
  <circle 
    cx="20" 
    cy="15" 
    r="6" 
    fill="#00ff00" 
  />
  
  <!-- Eyes -->
  <circle cx="17" cy="13" r="1.5" fill="#ffffff" />
  <circle cx="23" cy="13" r="1.5" fill="#ffffff" />
  
  <!-- Body -->
  <rect 
    x="12" 
    y="20" 
    width="16" 
    height="15" 
    fill="#00ff00" 
    rx="3"
  />
  
  <!-- Vest Details -->
  <rect x="14" y="22" width="12" height="2" fill="#ffffff" rx="1" />
  <rect x="14" y="26" width="12" height="2" fill="#ffffff" rx="1" />
  
  <!-- Gun -->
  <rect x="28" y="22" width="8" height="2" fill="#ffd700" rx="1" />
  <rect x="36" y="20" width="2" height="6" fill="#ffd700" rx="1" />
  
  <!-- Arms -->
  <rect x="8" y="22" width="4" height="8" fill="#00ff00" rx="2" />
  <rect x="28" y="22" width="4" height="8" fill="#00ff00" rx="2" />
  
  <!-- Legs -->
  <rect x="14" y="35" width="4" height="5" fill="#00ff00" rx="1" />
  <rect x="22" y="35" width="4" height="5" fill="#00ff00" rx="1" />
</svg> 