<?xml version="1.0" encoding="UTF-8"?>
<svg width="100%" height="100%" viewBox="0 0 800 850" preserveAspectRatio="xMidYMid slice" xmlns="http://www.w3.org/2000/svg">
  <defs>
    <linearGradient id="grad" x1="0%" y1="0%" x2="0%" y2="100%">
      <stop offset="0%" style="stop-color:#1E88E5;stop-opacity:1" />
      <stop offset="50%" style="stop-color:#1565C0;stop-opacity:1" />
      <stop offset="100%" style="stop-color:#0D47A1;stop-opacity:1" />
    </linearGradient>
  </defs>
  <rect width="100%" height="100%" fill="url(#grad)"/>
  <path d="M0,600 Q200,550 400,600 T800,600 L800,850 L0,850 Z" fill="#0D47A1"/>
  
  <!-- Waves -->
  <path d="M0,300 Q200,280 400,300 Q600,320 800,300" stroke="#4169E1" fill="none" stroke-width="2"/>
  <path d="M0,350 Q200,330 400,350 Q600,370 800,350" stroke="#4169E1" fill="none" stroke-width="2"/>
  <path d="M0,400 Q200,380 400,400 Q600,420 800,400" stroke="#4169E1" fill="none" stroke-width="2"/>
  
  <!-- Fish -->
  <g fill="#FF6347">
    <path d="M100,400 L120,390 L140,400 L120,410 Z"/>
    <path d="M300,450 L320,440 L340,450 L320,460 Z"/>
    <path d="M500,380 L520,370 L540,380 L520,390 Z"/>
    <path d="M700,420 L720,410 L740,420 L720,430 Z"/>
  </g>
  
  <!-- Bubbles -->
  <g fill="#FFFFFF" opacity="0.6">
    <circle cx="150" cy="350" r="3"/>
    <circle cx="350" cy="320" r="2"/>
    <circle cx="550" cy="380" r="4"/>
    <circle cx="750" cy="340" r="3"/>
  </g>
</svg> 