<?xml version="1.0" encoding="UTF-8"?>
<svg width="100%" height="100%" viewBox="0 0 800 900" preserveAspectRatio="xMidYMid slice" xmlns="http://www.w3.org/2000/svg">
  <defs>
    <linearGradient id="grad" x1="0%" y1="0%" x2="0%" y2="100%">
      <stop offset="0%" style="stop-color:#000033;stop-opacity:1" />
      <stop offset="100%" style="stop-color:#000066;stop-opacity:1" />
    </linearGradient>
  </defs>
  <rect width="100%" height="100%" fill="url(#grad)"/>
  
  <!-- Stars -->
  <g fill="#FFFFFF">
    <circle cx="100" cy="50" r="1"/>
    <circle cx="200" cy="150" r="1.5"/>
    <circle cx="300" cy="250" r="1"/>
    <circle cx="400" cy="350" r="2"/>
    <circle cx="500" cy="450" r="1"/>
    <circle cx="600" cy="550" r="1.5"/>
    <circle cx="700" cy="150" r="1"/>
    <circle cx="50" cy="300" r="2"/>
    <circle cx="150" cy="400" r="1"/>
    <circle cx="250" cy="500" r="1.5"/>
    <circle cx="350" cy="100" r="1"/>
    <circle cx="450" cy="200" r="2"/>
    <circle cx="550" cy="300" r="1"/>
    <circle cx="650" cy="400" r="1.5"/>
    <circle cx="750" cy="500" r="1"/>
    <!-- Additional stars for taller screens -->
    <circle cx="100" cy="650" r="1"/>
    <circle cx="200" cy="700" r="1.5"/>
    <circle cx="300" cy="750" r="1"/>
    <circle cx="400" cy="800" r="2"/>
    <circle cx="500" cy="850" r="1"/>
    <circle cx="600" cy="700" r="1.5"/>
    <circle cx="700" cy="750" r="1"/>
    <circle cx="150" cy="800" r="1"/>
    <circle cx="250" cy="850" r="1.5"/>
    <circle cx="350" cy="700" r="1"/>
    <circle cx="450" cy="750" r="2"/>
    <circle cx="550" cy="800" r="1"/>
    <circle cx="650" cy="850" r="1.5"/>
  </g>
  
  <!-- Distant planets -->
  <circle cx="100" cy="100" r="30" fill="#4a4a8a" opacity="0.5"/>
  <circle cx="700" cy="800" r="40" fill="#8a4a4a" opacity="0.5"/>
</svg> 